<?xml version="1.0" encoding="UTF-8" standalone="no"?>
<!-- Created with Inkscape (http://www.inkscape.org/) -->

<svg
   xmlns:dc="http://purl.org/dc/elements/1.1/"
   xmlns:cc="http://creativecommons.org/ns#"
   xmlns:rdf="http://www.w3.org/1999/02/22-rdf-syntax-ns#"
   xmlns:svg="http://www.w3.org/2000/svg"
   xmlns="http://www.w3.org/2000/svg"
   xmlns:xlink="http://www.w3.org/1999/xlink"
   xmlns:sodipodi="http://sodipodi.sourceforge.net/DTD/sodipodi-0.dtd"
   xmlns:inkscape="http://www.inkscape.org/namespaces/inkscape"
   width="210mm"
   height="297mm"
   viewBox="0 0 210 297"
   version="1.1"
   id="svg4410"
   inkscape:version="0.92.4 (5da689c313, 2019-01-14)"
   sodipodi:docname="desenhando.svg">
  <defs
     id="defs4405">
    <linearGradient
       gradientTransform="matrix(0.26458333,0,0,0.26458333,-354.87161,-63.379008)"
       inkscape:collect="always"
       xlink:href="#id1"
       id="linearGradient1101"
       x1="16.172859"
       y1="875.49628"
       x2="129.01926"
       y2="864.23352"
       gradientUnits="userSpaceOnUse" />
    <linearGradient
       y2="174.78"
       x2="506.22"
       y1="79.980003"
       x1="303.5"
       gradientUnits="userSpaceOnUse"
       id="id1">
      <stop
         id="stop306"
         style="stop-opacity:1; stop-color:#D92E2A"
         offset="0" />
      <stop
         id="stop308"
         style="stop-opacity:1; stop-color:#DE7D32"
         offset="0.678431" />
      <stop
         id="stop310"
         style="stop-opacity:1; stop-color:#E3CD3A"
         offset="1" />
    </linearGradient>
    <linearGradient
       gradientTransform="matrix(0.26458333,0,0,0.26458333,-7.3624251,7.6615472)"
       inkscape:collect="always"
       xlink:href="#id1"
       id="linearGradient5047"
       x1="16.172859"
       y1="875.49628"
       x2="129.01926"
       y2="864.23352"
       gradientUnits="userSpaceOnUse" />
    <linearGradient
       gradientTransform="matrix(0.26458334,0,0,0.26458333,-358.73055,-62.697227)"
       inkscape:collect="always"
       xlink:href="#id1"
       id="linearGradient1111"
       x1="16.348726"
       y1="891.1521"
       x2="124.01975"
       y2="891.1521"
       gradientUnits="userSpaceOnUse" />
    <linearGradient
       gradientTransform="matrix(0.26458334,0,0,0.26458333,-7.4424877,7.5791304)"
       inkscape:collect="always"
       xlink:href="#id1"
       id="linearGradient5076"
       x1="16.348726"
       y1="891.1521"
       x2="124.01975"
       y2="891.1521"
       gradientUnits="userSpaceOnUse" />
    <linearGradient
       gradientTransform="matrix(0.26458334,0,0,0.26458333,-358.73055,-62.697227)"
       inkscape:collect="always"
       xlink:href="#id1"
       id="linearGradient1123"
       x1="16.348726"
       y1="916.33557"
       x2="123.68358"
       y2="919.2702"
       gradientUnits="userSpaceOnUse" />
    <linearGradient
       gradientTransform="matrix(0.26458334,0,0,0.26458333,-7.4424877,7.5791304)"
       inkscape:collect="always"
       xlink:href="#id1"
       id="linearGradient5115"
       x1="16.348726"
       y1="916.33557"
       x2="123.68358"
       y2="919.2702"
       gradientUnits="userSpaceOnUse" />
    <linearGradient
       gradientTransform="matrix(0.26458334,0,0,0.26458333,-358.73055,-62.697227)"
       inkscape:collect="always"
       xlink:href="#id1"
       id="linearGradient1133"
       x1="16.043968"
       y1="941.5191"
       x2="119.73291"
       y2="942.49731"
       gradientUnits="userSpaceOnUse" />
    <linearGradient
       gradientTransform="matrix(0.26458334,0,0,0.26458333,-7.4424877,7.5791304)"
       inkscape:collect="always"
       xlink:href="#id1"
       id="linearGradient5154"
       x1="16.043968"
       y1="941.5191"
       x2="119.73291"
       y2="942.49731"
       gradientUnits="userSpaceOnUse" />
    <linearGradient
       inkscape:collect="always"
       xlink:href="#id0"
       id="linearGradient5028"
       gradientUnits="userSpaceOnUse"
       gradientTransform="matrix(0.26522674,0,0,0.28298219,-347.38569,-64.744778)"
       x1="-121.9"
       y1="25.110001"
       x2="737.65002"
       y2="347.75" />
    <linearGradient
       y2="347.75"
       x2="737.65002"
       y1="25.110001"
       x1="-121.9"
       gradientUnits="userSpaceOnUse"
       id="id0">
      <stop
         id="stop299"
         style="stop-opacity:1; stop-color:#D92E2A"
         offset="0" />
      <stop
         id="stop301"
         style="stop-opacity:1; stop-color:#DE7D32"
         offset="0.631373" />
      <stop
         id="stop303"
         style="stop-opacity:1; stop-color:#E3CD3A"
         offset="1" />
    </linearGradient>
    <linearGradient
       inkscape:collect="always"
       xlink:href="#id1"
       id="linearGradient5030"
       gradientUnits="userSpaceOnUse"
       gradientTransform="matrix(0.26522674,0,0,0.28298219,-347.38569,-64.744778)"
       x1="303.5"
       y1="79.980003"
       x2="506.22"
       y2="174.78" />
    <linearGradient
       inkscape:collect="always"
       xlink:href="#id1"
       id="linearGradient5032"
       gradientUnits="userSpaceOnUse"
       gradientTransform="matrix(0.26522674,0,0,0.28298219,-347.38569,-64.744778)"
       x1="301.10001"
       y1="96.790001"
       x2="504.10001"
       y2="157.63" />
    <linearGradient
       inkscape:collect="always"
       xlink:href="#id0"
       id="linearGradient5710"
       gradientUnits="userSpaceOnUse"
       gradientTransform="matrix(0.26522674,0,0,0.28298219,-347.38569,-64.744778)"
       x1="-121.9"
       y1="25.110001"
       x2="737.65002"
       y2="347.75" />
    <linearGradient
       inkscape:collect="always"
       xlink:href="#id1"
       id="linearGradient5712"
       gradientUnits="userSpaceOnUse"
       gradientTransform="matrix(0.26522674,0,0,0.28298219,-347.38569,-64.744778)"
       x1="303.5"
       y1="79.980003"
       x2="506.22"
       y2="174.78" />
    <linearGradient
       inkscape:collect="always"
       xlink:href="#id1"
       id="linearGradient5714"
       gradientUnits="userSpaceOnUse"
       gradientTransform="matrix(0.26522674,0,0,0.28298219,-347.38569,-64.744778)"
       x1="301.10001"
       y1="96.790001"
       x2="504.10001"
       y2="157.63" />
  </defs>
  <sodipodi:namedview
     id="base"
     pagecolor="#ffffff"
     bordercolor="#666666"
     borderopacity="1.0"
     inkscape:pageopacity="0.0"
     inkscape:pageshadow="2"
     inkscape:zoom="0.35"
     inkscape:cx="400"
     inkscape:cy="560"
     inkscape:document-units="mm"
     showgrid="false"
     inkscape:window-width="1920"
     inkscape:window-height="1017"
     inkscape:window-x="-8"
     inkscape:window-y="-8"
     inkscape:window-maximized="1"
     inkscape:current-layer="svg4410" />
  <metadata
     id="metadata4408">
    <rdf:RDF>
      <cc:Work
         rdf:about="">
        <dc:format>image/svg+xml</dc:format>
        <dc:type
           rdf:resource="http://purl.org/dc/dcmitype/StillImage" />
        <dc:title></dc:title>
      </cc:Work>
    </rdf:RDF>
  </metadata>
  <text
     xml:space="preserve"
     style="font-style:normal;font-variant:normal;font-weight:normal;font-stretch:normal;font-size:6.25345802px;line-height:1.25;font-family:'Arial Black';-inkscape-font-specification:'Arial Black, ';letter-spacing:0px;word-spacing:0px;display:inline;fill:url(#linearGradient1101);fill-opacity:1;stroke:none;stroke-width:0.24684699"
     x="-351.04138"
     y="169.80417"
     id="text222"
     transform="scale(0.97890528,1.0215493)"><tspan
       sodipodi:role="line"
       id="tspan220"
       x="-351.04138"
       y="169.80417"
       style="font-style:normal;font-variant:normal;font-weight:normal;font-stretch:normal;font-size:5.50459766px;font-family:'Arial Black';-inkscape-font-specification:'Arial Black, ';fill:url(#linearGradient1101);fill-opacity:1;stroke-width:0.24684699">1º Opção: <tspan
   style="fill:url(#linearGradient1101);fill-opacity:1;stroke-width:0.24684699"
   id="tspan1103">R$XX.XXX,xx (50% na reserva + 50% no check-in);</tspan></tspan></text>
  <text
     xml:space="preserve"
     style="font-style:normal;font-variant:normal;font-weight:normal;font-stretch:normal;font-size:4.98829651px;line-height:1.25;font-family:'Arial Black';-inkscape-font-specification:'Arial Black, ';letter-spacing:0px;word-spacing:0px;display:inline;fill:url(#linearGradient1111);fill-opacity:1;stroke:none;stroke-width:0.19690642"
     x="-354.55008"
     y="174.62822"
     id="text222-3"
     transform="scale(0.968375,1.0326578)"><tspan
       sodipodi:role="line"
       id="tspan220-6"
       x="-354.55008"
       y="174.62822"
       style="font-style:normal;font-variant:normal;font-weight:normal;font-stretch:normal;font-size:5.50459766px;font-family:'Arial Black';-inkscape-font-specification:'Arial Black, ';fill:url(#linearGradient1111);fill-opacity:1;stroke-width:0.19690642">2º Opção: <tspan
   style="fill:url(#linearGradient1111);stroke-width:0.19690642"
   id="tspan1113">Xx no cartão sem juros (Com entrada de R$XX.XXX,xx e o restante em Xx no cartão);</tspan></tspan><tspan
       sodipodi:role="line"
       x="-354.55008"
       y="181.04607"
       id="tspan259"
       style="fill:url(#linearGradient1111);fill-opacity:1;stroke-width:0.19690642" /></text>
  <text
     xml:space="preserve"
     style="font-style:normal;font-variant:normal;font-weight:normal;font-stretch:normal;font-size:4.98829651px;line-height:1.25;font-family:'Arial Black';-inkscape-font-specification:'Arial Black, ';letter-spacing:0px;word-spacing:0px;display:inline;fill:url(#linearGradient1123);fill-opacity:1;stroke:none;stroke-width:0.19690642"
     x="-354.59845"
     y="181.29132"
     id="text222-3-5"
     transform="scale(0.968375,1.0326578)"><tspan
       sodipodi:role="line"
       id="tspan220-6-3"
       x="-354.59845"
       y="181.29132"
       style="font-style:normal;font-variant:normal;font-weight:normal;font-stretch:normal;font-size:5.50459766px;font-family:'Arial Black';-inkscape-font-specification:'Arial Black, ';fill:url(#linearGradient1123);fill-opacity:1;stroke-width:0.19690642">3º Opção: <tspan
   style="fill:url(#linearGradient1123);stroke-width:0.19690642"
   id="tspan1125">Xx no cartão sem juros (Xx de R$XX.XXX,xx, passar os dados no ato da reserva);</tspan></tspan><tspan
       sodipodi:role="line"
       x="-354.59845"
       y="187.70917"
       id="tspan259-1"
       style="font-style:normal;font-variant:normal;font-weight:normal;font-stretch:normal;font-family:'Arial Black';-inkscape-font-specification:'Arial Black, ';fill:url(#linearGradient1123);fill-opacity:1;stroke-width:0.19690642" /></text>
  <text
     xml:space="preserve"
     style="font-style:normal;font-weight:normal;font-size:10.79959393px;line-height:1.25;font-family:sans-serif;letter-spacing:0px;word-spacing:0px;fill:#000000;fill-opacity:1;stroke:none;stroke-width:0.26998988"
     x="-204.9543"
     y="108.66646"
     id="text3980"><tspan
       sodipodi:role="line"
       x="-204.95428"
       y="108.66646"
       style="font-style:normal;font-variant:normal;font-weight:normal;font-stretch:normal;font-size:9.52499962px;line-height:11.99999809px;font-family:Arial;-inkscape-font-specification:Arial;text-align:center;text-anchor:middle;stroke-width:0.26998988"
       id="tspan345"><tspan
   style="font-style:normal;font-variant:normal;font-weight:normal;font-stretch:normal;font-family:'Arial Black';-inkscape-font-specification:'Arial Black, ';stroke-width:0.26998988"
   id="tspan363">Obs. </tspan>Valor promocional sujeito a alteração sem aviso, valores não</tspan><tspan
       sodipodi:role="line"
       x="-203.63345"
       y="122.16595"
       style="font-style:normal;font-variant:normal;font-weight:normal;font-stretch:normal;font-size:9.52499962px;line-height:11.99999809px;font-family:Arial;-inkscape-font-specification:Arial;text-align:center;text-anchor:middle;stroke-width:0.26998988"
       id="tspan347">validos para feriados prolongados. Gratuidade para crianças até </tspan><tspan
       sodipodi:role="line"
       x="-203.63345"
       y="135.66545"
       style="font-style:normal;font-variant:normal;font-weight:normal;font-stretch:normal;font-size:9.52499962px;line-height:11.99999809px;font-family:Arial;-inkscape-font-specification:Arial;text-align:center;text-anchor:middle;stroke-width:0.26998988"
       id="tspan349">06 anos na mesma suíte dos pais ou responsáveis em todas as </tspan><tspan
       sodipodi:role="line"
       x="-204.9543"
       y="149.16493"
       style="font-style:normal;font-variant:normal;font-weight:normal;font-stretch:normal;font-size:9.52499962px;line-height:11.99999809px;font-family:Arial;-inkscape-font-specification:Arial;text-align:center;text-anchor:middle;stroke-width:0.26998988"
       id="tspan361">opções.</tspan></text>
  <text
     xml:space="preserve"
     style="font-style:normal;font-variant:normal;font-weight:normal;font-stretch:normal;font-size:4.98829651px;line-height:1.25;font-family:'Arial Black';-inkscape-font-specification:'Arial Black, ';letter-spacing:0px;word-spacing:0px;display:inline;fill:url(#linearGradient1133);fill-opacity:1;stroke:none;stroke-width:0.19690642"
     x="-354.59845"
     y="187.95448"
     id="text222-3-5-6"
     transform="scale(0.968375,1.0326578)"><tspan
       sodipodi:role="line"
       x="-354.59845"
       y="187.95448"
       id="tspan259-1-6"
       style="font-style:normal;font-variant:normal;font-weight:normal;font-stretch:normal;font-size:5.50459766px;font-family:'Arial Black';-inkscape-font-specification:'Arial Black, ';fill:url(#linearGradient1133);fill-opacity:1;stroke-width:0.19690642">4º Opção: <tspan
   style="fill:url(#linearGradient1133);stroke-width:0.19690642"
   id="tspan1135">R$XX.XXX,xx com 5% de desconto para pagamento á vista;</tspan></tspan></text>
  <text
     xml:space="preserve"
     style="font-style:normal;font-weight:normal;font-size:10.58333302px;line-height:1.25;font-family:sans-serif;letter-spacing:0px;word-spacing:0px;fill:#000000;fill-opacity:1;stroke:none;stroke-width:0.26458332"
     x="-260.79034"
     y="208.71082"
     id="text367"><tspan
       sodipodi:role="line"
       id="tspan365"
       x="-260.79034"
       y="208.71082"
       style="stroke-width:0.26458332">{{ dados.dialy_alfa }}</tspan></text>
  <path
     id="path319"
     d="m -168.42659,-64.744778 c 24.42738,15.040504 39.54796,35.842525 39.54796,58.8235054 0,45.8855746 -60.24626,83.0807546 -134.56279,83.0807546 -31.75295,0 -60.93055,-6.7944 -83.94427,-18.15048 v -123.75378 z"
     class="fil1"
     inkscape:connector-curvature="0"
     style="clip-rule:evenodd;fill:url(#linearGradient5710);fill-rule:evenodd;stroke-width:0.27396065;image-rendering:optimizeQuality;shape-rendering:geometricPrecision;text-rendering:geometricPrecision" />
  <path
     id="path321"
     d="m -335.94911,60.899322 c -3.745,-1.24512 -7.58549,-2.72512 -11.43658,-4.43716 v -121.20694 h 170.44002 c 2.46661,1.604509 4.87221,3.293913 7.20886,5.079531 51.67943,39.481673 27.30775,90.356209 -22.11991,113.815449 -42.78903,20.30963 -99.59265,21.01992 -144.09239,6.74912 z"
     class="fil2"
     inkscape:connector-curvature="0"
     style="clip-rule:evenodd;fill:#fefefe;fill-rule:evenodd;stroke-width:0.27396065;image-rendering:optimizeQuality;shape-rendering:geometricPrecision;text-rendering:geometricPrecision" />
  <path
     id="path323"
     d="m -237.6269,-56.693932 c 16.51567,2.552498 27.97081,18.843785 25.58907,36.385845 -2.38438,17.5448974 -17.70123,29.6961514 -34.2169,27.1436524 -16.51302,-2.552501 -27.96816,-18.8437844 -25.58642,-36.3858494 2.38173,-17.544894 17.70123,-29.69615 34.21425,-27.143648 z"
     class="fil3"
     inkscape:connector-curvature="0"
     style="clip-rule:evenodd;fill:url(#linearGradient5712);fill-rule:evenodd;stroke-width:0.27396065;image-rendering:optimizeQuality;shape-rendering:geometricPrecision;text-rendering:geometricPrecision" />
  <ellipse
     id="ellipse325"
     ry="30.395119"
     rx="28.610008"
     cy="-24.932005"
     cx="-241.93947"
     class="fil4"
     style="clip-rule:evenodd;fill:url(#linearGradient5714);fill-rule:evenodd;stroke-width:0.27396065;image-rendering:optimizeQuality;shape-rendering:geometricPrecision;text-rendering:geometricPrecision" />
  <path
     id="path327"
     d="m -257.5693,-44.115375 0.63124,-0.33675 -0.17771,-0.662177 0.39785,0.05943 0.16178,-0.257516 0.12996,-0.311278 0.33154,0.03679 0.10344,-0.285809 0.32888,0.08206 0.27583,-0.481071 0.59411,0.594266 0.26523,-0.66784 0.44293,0.415984 0.46149,0.322598 0.35806,-0.594262 1.56484,0.33109 1.45344,-0.77254 1.12721,1.140416 0.80099,-0.594263 0.87259,1.12061 1.14844,-0.164129 0.62593,0.814989 0.69224,-0.249024 0.69224,0.747072 0.47476,-0.684817 0.18301,1.12061 0.92829,1.174376 0.21483,1.165887 c 0,0 0.71081,0.868755 0.80629,1.143247 0.0981,0.277324 0.5172,0.690477 0.5172,0.690477 l 0.19361,-0.964969 -0.29971,-1.530935 0.50393,-1.57904 -0.36601,-2.096897 1.38183,-0.823477 1.64176,-2.538353 1.59136,-0.715942 0.87259,-2.164814 1.13252,0.786688 1.21474,-1.652615 0.45089,0.693306 1.26778,-0.868755 1.03173,0.362219 0.96012,-0.608414 1.09274,0.220726 1.29696,-0.59709 -1.38714,2.323283 -1.01847,1.5564 -2.11916,1.352657 -2.00777,3.050545 -1.82211,1.281911 -1.03173,1.10363 0.77446,-0.158469 -0.3554,0.585774 -0.67898,0.690477 -0.54902,0.135829 -0.58085,0.758394 0.35541,0.483899 0.87259,-0.724434 0.93625,-0.551817 0.38989,-0.738582 1.88576,-0.155641 0.73733,-1.061184 2.21464,-1.072501 2.09795,0.359387 1.29695,-0.430133 1.83537,1.052696 1.76641,-0.384856 -0.0212,1.284739 2.40824,0.418813 -0.84872,0.707454 2.19609,0.684817 -0.72408,0.718774 1.30757,0.735754 -0.42437,0.421645 1.02379,0.936668 -3.46387,-1.165883 -0.13262,1.14042 -3.08724,-1.287572 -0.5384,0.741414 -2.27299,-1.10363 -0.41641,0.928181 -2.0502,-0.78386 0.54637,1.103631 -1.99982,-0.735756 -0.0265,1.066845 -1.9733,-0.217898 1.01848,0.628222 1.29165,0.483899 0.53045,0.169788 0.43497,0.413155 c 0,0 0.43497,-0.03396 0.53312,0.05377 0.0981,0.08489 0.5994,0.274492 0.5994,0.274492 l 0.84078,0.302792 0.51189,0.993267 1.19881,0.113192 -0.12731,1.542251 1.88842,0.585771 -0.20157,0.939501 1.12986,0.424477 -0.38722,1.989365 0.88851,1.632804 -0.32358,0.783865 0.77977,1.264928 -0.33155,0.814988 -0.15382,1.168715 -0.63654,-1.27059 -0.63655,0.359386 -0.26523,-1.018733 -0.66041,-0.138657 0.0663,-1.245127 -0.30236,0.311283 -0.45353,-0.721604 -0.43497,0.186767 -0.008,-1.253612 -0.36336,0.149982 -0.6339,-0.936673 -0.49067,0.08489 -0.65246,-1.378125 -0.31031,0.537668 -0.95216,-0.947992 -0.16444,0.282983 -0.32888,-0.438624 -0.29441,0.232048 -1.12986,-0.698966 0.44026,1.052692 0.56495,0.481071 c 0,0 0.37131,0.673497 0.51718,0.77537 0.14587,0.104703 0.5172,0.382026 0.67899,0.517858 0.16179,0.138663 0.48536,0.741413 0.48536,0.741413 l 0.3395,0.551817 0.45088,0.551813 0.14588,0.792353 -0.80895,0.311277 -0.11139,0.430133 0.33684,0.585774 0.2334,0.761222 0.10609,0.404665 -0.0663,0.198088 0.31297,0.614069 0.5172,0.345239 -0.35541,0.413157 0.22545,1.174374 0.0663,0.962139 0.0955,0.44994 -0.0637,0.792353 c 0,0 0.16179,0.687644 0.0955,1.069673 -0.0636,0.379196 -1.03174,1.720533 -1.03174,1.720533 l -0.97073,1.035711 c 0,0 0.0318,0.311283 -0.1936,0.551818 -0.22546,0.240535 -0.80895,0.724434 -0.80895,0.724434 l -0.1273,0.758391 -0.48537,-0.964969 0.22543,-1.171546 0.0663,-0.585772 -0.3554,-1.689404 -0.61533,0.619731 -0.38723,-0.792353 0.0981,-1.208334 -0.0981,-0.998926 -0.19362,-0.826307 0.16179,-0.551813 -0.22544,-1.276252 -0.0981,-0.48107 -0.32357,-0.96497 -0.19627,-1.344166 -1.09804,-0.172616 -0.29175,-1.205506 -0.83811,-1.10363 -0.80895,-1.137589 -0.51719,-0.897051 -0.77447,-1.344165 c 0,0 -0.22543,-0.206579 -0.32358,0.06791 -0.0955,0.277323 -0.45087,1.171549 -0.45087,1.171549 l 0.67897,0.690475 0.58085,1.171546 c 0,0 -0.51719,-0.135832 -0.45353,0.07074 0.0637,0.206578 0.25727,1.310208 0.25727,1.310208 0,0 -0.28911,-0.13866 -0.35276,0.169792 -0.0663,0.311279 0.12731,1.174374 0.12731,1.174374 0,0 -0.25727,0.34241 -0.0637,0.481071 0.19362,0.13866 0.12997,1.24229 0.12997,1.24229 l -0.54902,0.96497 c 0,0 0.0318,0.342413 0,0.585774 -0.0345,0.240538 -0.12996,1.032886 -0.12996,1.032886 l -0.42172,1.310206 c 0,0 -0.35274,0.240532 -0.35274,1.344162 0,1.103636 -1.42162,3.446727 -1.42162,3.446727 l 0.061,1.106459 -0.38723,1.655445 -0.19362,1.723361 -1.228,2.6883364 -1.03438,2.413836 -1.228,1.997853 -1.22535,2.20725998 -2.84323,2.27518102 -2.19873,1.516785 -1.09804,0.758391 -1.74519,-0.622562 -1.228,-0.826307 0.7108,-1.10363 1.228,-1.17154602 1.67889,-0.758391 1.55157,-2.34309198 2.13243,-1.723366 1.42161,-2.756244 1.1617,-1.242296 c 0,0 0.5835,-1.1715454 0.84077,-1.7233604 0.25992,-0.551815 0.90442,-1.929937 0.90442,-1.929937 l 0.45354,-2.620415 0.71081,-0.894228 1.16169,-1.929937 -0.19362,-2.139347 0.38723,-2.617581 c 0,0 0.12997,-0.964973 0.32358,-1.448869 0.19362,-0.481068 0.38723,-2.068597 0.38723,-2.068597 v -1.239465 l -0.25727,-2.620417 -0.12996,-1.862021 -0.45354,-0.96497 -0.45088,0.775375 c 0,0 -0.45354,1.018733 -0.42171,1.154564 0.0318,0.138661 0.003,0.08772 -0.0955,0.311277 -0.0981,0.22356 -0.6949,0.981951 -0.74264,1.086655 -0.0504,0.10187 -0.74529,1.100801 -0.74529,1.100801 l -0.25727,1.10363 -1.19617,1.828068 -0.8726,1.482822 c 0,0 0.25727,0.413155 0.0318,0.758397 -0.22544,0.342408 -0.96808,0.687641 -0.71081,0.826307 0.25993,0.138663 -1.06621,0.138663 -1.06621,0.138663 l -0.38723,0.413152 c 0,0 0.3554,0.860263 0.41906,1.066845 0.0663,0.206571 0.12996,1.174377 0.0981,1.587529 -0.0318,0.413149 -0.0318,1.171546 -0.0318,1.171546 0,0 -0.77712,0.826307 -0.64716,1.032883 0.12997,0.206579 -0.32357,0.622556 -0.32357,0.622556 0,0 0.19361,-0.138657 -0.48271,0.585775 -0.67899,0.721606 -0.67899,1.273421 -0.67899,1.273421 0,0 -0.97073,-0.826307 -0.74263,-0.860261 0.22544,-0.03679 -0.3554,-1.760151 -0.3554,-1.760151 l -0.25993,-1.134761 -0.3554,-0.863098 -0.61267,-1.412078 -0.42171,-1.414912 0.68428,-0.984774 -1.2333,-1.03006 2.19607,-1.779958 -1.51709,-0.104704 1.99715,-1.443207 -1.01846,-0.650859 3.03949,-2.275178 -0.97338,0.03679 2.58596,-1.290399 -1.13782,-0.118851 2.63105,-1.74317 -1.86455,-0.679157 -1.48792,1.40076 -0.71876,-0.314111 -0.73733,0.65935 -0.81425,-0.189598 -0.25196,1.015908 -0.94952,0.31977 -0.43497,1.335675 -0.94155,-0.82631 -0.85138,0.761225 c 0,0 -0.27849,1.513953 -0.31032,1.754489 -0.0318,0.240533 -1.66032,0.407493 -1.66032,0.407493 l -1.10864,1.284739 -0.23075,0.393343 -1.31022,0.670669 1.01316,-1.185696 0.12997,-0.885732 -0.19362,-1.134759 -0.15383,-1.151739 0.78772,-1.061183 0.0265,-1.180036 0.85669,-0.322599 0.1777,-1.185695 1.29696,-0.447109 0.4164,-1.052695 0.88851,-0.06792 0.41641,-1.018733 1.32613,-0.503711 0.36867,-1.013074 1.16699,0.285811 1.24127,-1.30172 3.40551,0.577288 c 0.45088,0 1.34204,-0.410327 1.34204,-0.410327 l -0.36336,-0.792352 -0.60471,-0.189598 -0.67898,-0.415984 -0.6392,-0.110359 -0.88851,-0.515029 -1.19617,-0.534836 -1.38979,-0.328262 c 0,0 -0.0663,-0.396173 -0.33949,-0.413153 -0.27319,-0.01696 -1.03439,-0.03396 -1.03439,-0.03396 l -1.09803,-0.08773 c 0,0 -0.22545,-0.396173 -0.33949,-0.44711 -0.1114,-0.05094 -0.54902,0.03396 -0.66042,0.05094 -0.11405,0.01696 -0.63124,0.01696 -0.63124,0.01696 0,0 0.12996,-0.619731 0,-0.534836 -0.12996,0.08773 -0.59676,0.243363 -0.59676,0.243363 l -0.25992,-0.05377 -0.56493,-0.379195 -0.37132,0.209406 -0.6445,-0.13866 -0.32358,-0.104703 -1.15639,0.02828 0.66572,-0.517857 z"
     class="fil5"
     inkscape:connector-curvature="0"
     style="clip-rule:evenodd;fill:#295f2a;fill-rule:evenodd;stroke-width:0.27396065;image-rendering:optimizeQuality;shape-rendering:geometricPrecision;text-rendering:geometricPrecision" />
  <g
     style="clip-rule:evenodd;fill-rule:evenodd;image-rendering:optimizeQuality;shape-rendering:geometricPrecision;text-rendering:geometricPrecision"
     id="g331"
     transform="matrix(0.28093083,0,0,0.28298219,-378.99064,-154.22744)">
    <text
       id="text329"
       class="fil6 fnt0"
       y="540"
       x="540"
       style="font-weight:bold;font-size:77.94999695px;font-family:Arial;fill:#201e1e">Pedra</text>
  </g>
  <g
     style="clip-rule:evenodd;fill-rule:evenodd;image-rendering:optimizeQuality;shape-rendering:geometricPrecision;text-rendering:geometricPrecision"
     id="g335"
     transform="matrix(0.25623955,0,0,0.28298219,-446.98391,-153.57261)">
    <text
       id="text333"
       class="fil6 fnt0"
       y="540"
       x="540"
       style="font-weight:bold;font-size:77.94999695px;font-family:Arial;fill:#201e1e">Casa</text>
  </g>
  <g
     style="clip-rule:evenodd;fill-rule:evenodd;image-rendering:optimizeQuality;shape-rendering:geometricPrecision;text-rendering:geometricPrecision"
     id="g339"
     transform="matrix(0.25623955,0,0,0.28298219,-395.55299,-153.57205)">
    <text
       id="text337"
       class="fil6 fnt0"
       y="540"
       x="540"
       style="font-weight:bold;font-size:77.94999695px;font-family:Arial;fill:#201e1e">de</text>
  </g>
  <g
     style="clip-rule:evenodd;fill-rule:evenodd;image-rendering:optimizeQuality;shape-rendering:geometricPrecision;text-rendering:geometricPrecision"
     id="g343"
     transform="matrix(0.21518616,0,0,0.28298219,-440.45323,-171.28502)">
    <text
       id="text341"
       class="fil6 fnt1"
       y="540"
       x="540"
       style="font-weight:bold;font-size:54.91999817px;font-family:Arial;fill:#201e1e">Pousada</text>
  </g>
  <g
     style="clip-rule:evenodd;fill-rule:evenodd;image-rendering:optimizeQuality;shape-rendering:geometricPrecision;text-rendering:geometricPrecision"
     id="g347"
     transform="matrix(0.26691889,0,0,0.28298219,-473.4599,-132.00795)">
    <text
       id="text345"
       class="fil6 fnt2"
       y="540"
       x="540"
       style="font-weight:normal;font-size:33.38999939px;font-family:Arial;fill:#201e1e">(12)</text>
  </g>
  <g
     style="clip-rule:evenodd;fill-rule:evenodd;image-rendering:optimizeQuality;shape-rendering:geometricPrecision;text-rendering:geometricPrecision"
     id="g351"
     transform="matrix(0.27122617,0,0,0.28298219,-458.79684,-130.77245)">
    <text
       id="text349"
       class="fil6 fnt3"
       y="540"
       x="540"
       style="font-weight:normal;font-size:51.24000168px;font-family:Arial;fill:#201e1e">3895-8283</text>
  </g>
  <g
     style="clip-rule:evenodd;fill-rule:evenodd;image-rendering:optimizeQuality;shape-rendering:geometricPrecision;text-rendering:geometricPrecision"
     id="g355"
     transform="matrix(0.27122617,0,0,0.28298219,-390.19329,-130.12329)">
    <text
       id="text353"
       class="fil7 fnt3"
       y="540"
       x="540"
       style="font-weight:normal;font-size:51.24000168px;font-family:Arial;fill:#373435">/</text>
  </g>
  <g
     style="clip-rule:evenodd;fill-rule:evenodd;image-rendering:optimizeQuality;shape-rendering:geometricPrecision;text-rendering:geometricPrecision"
     id="g359"
     transform="matrix(0.27122617,0,0,0.28298219,-371.27435,-130.49824)">
    <text
       id="text357"
       class="fil6 fnt3"
       y="540"
       x="540"
       style="font-weight:normal;font-size:51.24000168px;font-family:Arial;fill:#201e1e">99778-3131</text>
  </g>
  <g
     style="clip-rule:evenodd;fill-rule:evenodd;image-rendering:optimizeQuality;shape-rendering:geometricPrecision;text-rendering:geometricPrecision"
     id="g363"
     transform="matrix(0.25440046,0,0,0.28298219,-330.6719,-145.58799)">
    <text
       id="text361"
       class="fil6 fnt4"
       y="540"
       x="540"
       style="font-weight:bold;font-size:32.68999863px;font-family:Arial;fill:#201e1e">Ilhabela</text>
  </g>
  <g
     style="clip-rule:evenodd;fill-rule:evenodd;image-rendering:optimizeQuality;shape-rendering:geometricPrecision;text-rendering:geometricPrecision"
     id="_2848315448192"
     transform="matrix(0.26522675,0,0,0.28298219,-347.38569,-64.744778)">
    <g
       id="g369">
      <path
         id="path365"
         d="m 411.53,310.96 c 0.62,-1.86 1.21,-3.61 1.79,-5.36 0.59,-1.73 1.11,-3.48 1.78,-5.19 0.34,-0.86 0.23,-1.51 -0.2,-2.32 -2.36,-4.38 -3.06,-9.08 -2.24,-13.96 0.69,-4.14 2.45,-7.8 5.29,-10.9 4.67,-5.11 10.51,-7.56 17.41,-7.28 5.06,0.21 9.53,2.06 13.34,5.4 3.55,3.11 5.87,6.98 6.94,11.57 0.86,3.71 0.77,7.39 -0.3,11.04 -1.35,4.62 -3.94,8.43 -7.78,11.34 -5.35,4.03 -11.34,5.29 -17.87,4.02 -1.97,-0.38 -3.84,-1.09 -5.61,-2.04 -0.29,-0.15 -0.53,-0.19 -0.84,-0.08 -3.36,1.08 -6.72,2.15 -10.07,3.22 -0.5,0.17 -1.02,0.34 -1.64,0.54 z m 5.71,-5.65 c 0.17,-0.04 0.26,-0.06 0.34,-0.09 2.1,-0.66 4.2,-1.34 6.3,-1.99 0.2,-0.06 0.47,-0.01 0.66,0.08 0.91,0.45 1.79,1 2.72,1.39 3.86,1.63 7.83,1.89 11.85,0.78 4.8,-1.35 8.47,-4.2 10.99,-8.52 2.15,-3.69 2.89,-7.69 2.22,-11.88 -0.84,-5.35 -3.58,-9.55 -8.12,-12.53 -3.92,-2.58 -8.25,-3.45 -12.86,-2.72 -3.98,0.63 -7.37,2.44 -10.18,5.34 -2.4,2.49 -4.02,5.43 -4.72,8.81 -1,4.83 -0.26,9.41 2.42,13.58 0.55,0.84 0.53,1.48 0.2,2.34 -0.65,1.76 -1.2,3.55 -1.82,5.41 z"
         class="fil6"
         inkscape:connector-curvature="0"
         style="fill:#201e1e" />
      <path
         id="path367"
         d="m 445.64,294.19 c -0.03,1.74 -0.85,3.07 -2.51,3.9 -1.63,0.81 -3.29,1.02 -4.99,0.35 -1.53,-0.6 -3.08,-1.19 -4.56,-1.92 -1.95,-0.96 -3.54,-2.41 -5,-4 -1.61,-1.77 -2.98,-3.73 -4.11,-5.83 -0.8,-1.49 -1.29,-3.07 -1.12,-4.8 0.18,-1.83 1.04,-3.3 2.48,-4.41 0.29,-0.22 0.72,-0.32 1.09,-0.35 0.48,-0.04 0.96,0.03 1.43,0.07 0.4,0.04 0.62,0.32 0.75,0.64 0.35,0.86 0.67,1.73 1,2.6 0.23,0.59 0.4,1.2 0.67,1.77 0.33,0.7 0.13,1.29 -0.31,1.83 -0.37,0.46 -0.75,0.9 -1.18,1.3 -0.35,0.33 -0.41,0.67 -0.18,1.08 1.04,1.85 2.3,3.5 3.97,4.85 1.1,0.88 2.31,1.54 3.57,2.15 0.37,0.18 0.73,0.15 1.02,-0.18 0.62,-0.71 1.26,-1.42 1.87,-2.14 0.39,-0.46 0.59,-0.55 1.12,-0.28 1.55,0.78 3.07,1.58 4.6,2.38 0.36,0.2 0.45,0.53 0.39,0.99 z"
         class="fil6"
         inkscape:connector-curvature="0"
         style="fill:#201e1e" />
    </g>
  </g>
  <g
     style="clip-rule:evenodd;fill-rule:evenodd;image-rendering:optimizeQuality;shape-rendering:geometricPrecision;text-rendering:geometricPrecision"
     id="_2848315441952"
     transform="matrix(0.26522675,0,0,0.28298219,-347.38569,-64.744778)">
    <g
       id="g376">
      <g
         id="g374">
        <path
           id="path372"
           d="m 39.43,266.06 c 10.93,0 19.82,8.89 19.82,19.82 0,10.93 -8.89,19.82 -19.82,19.82 -10.93,0 -19.82,-8.89 -19.82,-19.82 0,-10.93 8.89,-19.82 19.82,-19.82 z m 0,-2.83 c -12.51,0 -22.66,10.14 -22.66,22.65 0,12.51 10.15,22.66 22.66,22.66 12.51,0 22.65,-10.15 22.65,-22.66 0,-12.51 -10.14,-22.65 -22.65,-22.65 z m 12.63,30.23 -0.13,-0.39 c -0.3,-0.89 -1.28,-1.82 -2.19,-2.07 l -3.35,-0.92 c -0.91,-0.24 -2.2,0.09 -2.87,0.76 l -1.21,1.21 c -4.4,-1.19 -7.85,-4.65 -9.04,-9.05 l 1.21,-1.21 c 0.66,-0.67 0.99,-1.96 0.75,-2.87 l -0.92,-3.35 c -0.24,-0.91 -1.18,-1.89 -2.07,-2.19 l -0.38,-0.13 c -0.89,-0.29 -2.17,0.01 -2.83,0.67 l -1.82,1.82 c -0.32,0.32 -0.53,1.24 -0.53,1.24 -0.06,5.76 2.2,11.3 6.27,15.38 4.06,4.06 9.59,6.31 15.32,6.26 0.03,0 0.98,-0.2 1.31,-0.52 l 1.81,-1.82 c 0.66,-0.66 0.96,-1.93 0.67,-2.82 z"
           class="fil6"
           inkscape:connector-curvature="0"
           style="fill:#201e1e" />
      </g>
    </g>
    <g
       id="_2848315447072" />
    <g
       id="_2848315444832" />
    <g
       id="_2848315445152" />
    <g
       id="_2848315445888" />
    <g
       id="_2848315445632" />
    <g
       id="_2848315445600" />
    <g
       id="_2848315444480" />
    <g
       id="_2848315442592" />
    <g
       id="_2848315444192" />
    <g
       id="_2848315444096" />
    <g
       id="_2848315443712" />
    <g
       id="_2848315443552" />
    <g
       id="_2848315443168" />
    <g
       id="_2848315443328" />
    <g
       id="_2848315440800" />
  </g>
  <path
     style="clip-rule:evenodd;fill:url(#linearGradient5028);fill-rule:evenodd;stroke-width:0.27396065;image-rendering:optimizeQuality;shape-rendering:geometricPrecision;text-rendering:geometricPrecision"
     inkscape:connector-curvature="0"
     class="fil1"
     d="m -168.42659,-64.744778 c 24.42738,15.040504 39.54796,35.842525 39.54796,58.8235054 0,45.8855746 -60.24626,83.0807546 -134.56279,83.0807546 -31.75295,0 -60.93055,-6.7944 -83.94427,-18.15048 v -123.75378 z"
     id="path224" />
  <path
     style="clip-rule:evenodd;fill:#fefefe;fill-rule:evenodd;stroke-width:0.27396065;image-rendering:optimizeQuality;shape-rendering:geometricPrecision;text-rendering:geometricPrecision"
     inkscape:connector-curvature="0"
     class="fil2"
     d="m -335.94911,60.899322 c -3.745,-1.24512 -7.58549,-2.72512 -11.43658,-4.43716 v -121.20694 h 170.44002 c 2.46661,1.604509 4.87221,3.293913 7.20886,5.079531 51.67943,39.481673 27.30775,90.356209 -22.11991,113.815449 -42.78903,20.30963 -99.59265,21.01992 -144.09239,6.74912 z"
     id="path226" />
  <path
     style="clip-rule:evenodd;fill:url(#linearGradient5030);fill-rule:evenodd;stroke-width:0.27396065;image-rendering:optimizeQuality;shape-rendering:geometricPrecision;text-rendering:geometricPrecision"
     inkscape:connector-curvature="0"
     class="fil3"
     d="m -237.6269,-56.693932 c 16.51567,2.552498 27.97081,18.843785 25.58907,36.385845 -2.38438,17.5448974 -17.70123,29.6961514 -34.2169,27.1436524 -16.51302,-2.552501 -27.96816,-18.8437844 -25.58642,-36.3858494 2.38173,-17.544894 17.70123,-29.69615 34.21425,-27.143648 z"
     id="path228" />
  <ellipse
     style="clip-rule:evenodd;fill:url(#linearGradient5032);fill-rule:evenodd;stroke-width:0.27396065;image-rendering:optimizeQuality;shape-rendering:geometricPrecision;text-rendering:geometricPrecision"
     class="fil4"
     cx="-241.93947"
     cy="-24.932005"
     rx="28.610008"
     ry="30.395119"
     id="ellipse230" />
  <path
     style="clip-rule:evenodd;fill:#295f2a;fill-rule:evenodd;stroke-width:0.27396065;image-rendering:optimizeQuality;shape-rendering:geometricPrecision;text-rendering:geometricPrecision"
     inkscape:connector-curvature="0"
     class="fil5"
     d="m -257.5693,-44.115375 0.63124,-0.33675 -0.17771,-0.662177 0.39785,0.05943 0.16178,-0.257516 0.12996,-0.311278 0.33154,0.03679 0.10344,-0.285809 0.32888,0.08206 0.27583,-0.481071 0.59411,0.594266 0.26523,-0.66784 0.44293,0.415984 0.46149,0.322598 0.35806,-0.594262 1.56484,0.33109 1.45344,-0.77254 1.12721,1.140416 0.80099,-0.594263 0.87259,1.12061 1.14844,-0.164129 0.62593,0.814989 0.69224,-0.249024 0.69224,0.747072 0.47476,-0.684817 0.18301,1.12061 0.92829,1.174376 0.21483,1.165887 c 0,0 0.71081,0.868755 0.80629,1.143247 0.0981,0.277324 0.5172,0.690477 0.5172,0.690477 l 0.19361,-0.964969 -0.29971,-1.530935 0.50393,-1.57904 -0.36601,-2.096897 1.38183,-0.823477 1.64176,-2.538353 1.59136,-0.715942 0.87259,-2.164814 1.13252,0.786688 1.21474,-1.652615 0.45089,0.693306 1.26778,-0.868755 1.03173,0.362219 0.96012,-0.608414 1.09274,0.220726 1.29696,-0.59709 -1.38714,2.323283 -1.01847,1.5564 -2.11916,1.352657 -2.00777,3.050545 -1.82211,1.281911 -1.03173,1.10363 0.77446,-0.158469 -0.3554,0.585774 -0.67898,0.690477 -0.54902,0.135829 -0.58085,0.758394 0.35541,0.483899 0.87259,-0.724434 0.93625,-0.551817 0.38989,-0.738582 1.88576,-0.155641 0.73733,-1.061184 2.21464,-1.072501 2.09795,0.359387 1.29695,-0.430133 1.83537,1.052696 1.76641,-0.384856 -0.0212,1.284739 2.40824,0.418813 -0.84872,0.707454 2.19609,0.684817 -0.72408,0.718774 1.30757,0.735754 -0.42437,0.421645 1.02379,0.936668 -3.46387,-1.165883 -0.13262,1.14042 -3.08724,-1.287572 -0.5384,0.741414 -2.27299,-1.10363 -0.41641,0.928181 -2.0502,-0.78386 0.54637,1.103631 -1.99982,-0.735756 -0.0265,1.066845 -1.9733,-0.217898 1.01848,0.628222 1.29165,0.483899 0.53045,0.169788 0.43497,0.413155 c 0,0 0.43497,-0.03396 0.53312,0.05377 0.0981,0.08489 0.5994,0.274492 0.5994,0.274492 l 0.84078,0.302792 0.51189,0.993267 1.19881,0.113192 -0.12731,1.542251 1.88842,0.585771 -0.20157,0.939501 1.12986,0.424477 -0.38722,1.989365 0.88851,1.632804 -0.32358,0.783865 0.77977,1.264928 -0.33155,0.814988 -0.15382,1.168715 -0.63654,-1.27059 -0.63655,0.359386 -0.26523,-1.018733 -0.66041,-0.138657 0.0663,-1.245127 -0.30236,0.311283 -0.45353,-0.721604 -0.43497,0.186767 -0.008,-1.253612 -0.36336,0.149982 -0.6339,-0.936673 -0.49067,0.08489 -0.65246,-1.378125 -0.31031,0.537668 -0.95216,-0.947992 -0.16444,0.282983 -0.32888,-0.438624 -0.29441,0.232048 -1.12986,-0.698966 0.44026,1.052692 0.56495,0.481071 c 0,0 0.37131,0.673497 0.51718,0.77537 0.14587,0.104703 0.5172,0.382026 0.67899,0.517858 0.16179,0.138663 0.48536,0.741413 0.48536,0.741413 l 0.3395,0.551817 0.45088,0.551813 0.14588,0.792353 -0.80895,0.311277 -0.11139,0.430133 0.33684,0.585774 0.2334,0.761222 0.10609,0.404665 -0.0663,0.198088 0.31297,0.614069 0.5172,0.345239 -0.35541,0.413157 0.22545,1.174374 0.0663,0.962139 0.0955,0.44994 -0.0637,0.792353 c 0,0 0.16179,0.687644 0.0955,1.069673 -0.0636,0.379196 -1.03174,1.720533 -1.03174,1.720533 l -0.97073,1.035711 c 0,0 0.0318,0.311283 -0.1936,0.551818 -0.22546,0.240535 -0.80895,0.724434 -0.80895,0.724434 l -0.1273,0.758391 -0.48537,-0.964969 0.22543,-1.171546 0.0663,-0.585772 -0.3554,-1.689404 -0.61533,0.619731 -0.38723,-0.792353 0.0981,-1.208334 -0.0981,-0.998926 -0.19362,-0.826307 0.16179,-0.551813 -0.22544,-1.276252 -0.0981,-0.48107 -0.32357,-0.96497 -0.19627,-1.344166 -1.09804,-0.172616 -0.29175,-1.205506 -0.83811,-1.10363 -0.80895,-1.137589 -0.51719,-0.897051 -0.77447,-1.344165 c 0,0 -0.22543,-0.206579 -0.32358,0.06791 -0.0955,0.277323 -0.45087,1.171549 -0.45087,1.171549 l 0.67897,0.690475 0.58085,1.171546 c 0,0 -0.51719,-0.135832 -0.45353,0.07074 0.0637,0.206578 0.25727,1.310208 0.25727,1.310208 0,0 -0.28911,-0.13866 -0.35276,0.169792 -0.0663,0.311279 0.12731,1.174374 0.12731,1.174374 0,0 -0.25727,0.34241 -0.0637,0.481071 0.19362,0.13866 0.12997,1.24229 0.12997,1.24229 l -0.54902,0.96497 c 0,0 0.0318,0.342413 0,0.585774 -0.0345,0.240538 -0.12996,1.032886 -0.12996,1.032886 l -0.42172,1.310206 c 0,0 -0.35274,0.240532 -0.35274,1.344162 0,1.103636 -1.42162,3.446727 -1.42162,3.446727 l 0.061,1.106459 -0.38723,1.655445 -0.19362,1.723361 -1.228,2.6883364 -1.03438,2.413836 -1.228,1.997853 -1.22535,2.20725998 -2.84323,2.27518102 -2.19873,1.516785 -1.09804,0.758391 -1.74519,-0.622562 -1.228,-0.826307 0.7108,-1.10363 1.228,-1.17154602 1.67889,-0.758391 1.55157,-2.34309198 2.13243,-1.723366 1.42161,-2.756244 1.1617,-1.242296 c 0,0 0.5835,-1.1715454 0.84077,-1.7233604 0.25992,-0.551815 0.90442,-1.929937 0.90442,-1.929937 l 0.45354,-2.620415 0.71081,-0.894228 1.16169,-1.929937 -0.19362,-2.139347 0.38723,-2.617581 c 0,0 0.12997,-0.964973 0.32358,-1.448869 0.19362,-0.481068 0.38723,-2.068597 0.38723,-2.068597 v -1.239465 l -0.25727,-2.620417 -0.12996,-1.862021 -0.45354,-0.96497 -0.45088,0.775375 c 0,0 -0.45354,1.018733 -0.42171,1.154564 0.0318,0.138661 0.003,0.08772 -0.0955,0.311277 -0.0981,0.22356 -0.6949,0.981951 -0.74264,1.086655 -0.0504,0.10187 -0.74529,1.100801 -0.74529,1.100801 l -0.25727,1.10363 -1.19617,1.828068 -0.8726,1.482822 c 0,0 0.25727,0.413155 0.0318,0.758397 -0.22544,0.342408 -0.96808,0.687641 -0.71081,0.826307 0.25993,0.138663 -1.06621,0.138663 -1.06621,0.138663 l -0.38723,0.413152 c 0,0 0.3554,0.860263 0.41906,1.066845 0.0663,0.206571 0.12996,1.174377 0.0981,1.587529 -0.0318,0.413149 -0.0318,1.171546 -0.0318,1.171546 0,0 -0.77712,0.826307 -0.64716,1.032883 0.12997,0.206579 -0.32357,0.622556 -0.32357,0.622556 0,0 0.19361,-0.138657 -0.48271,0.585775 -0.67899,0.721606 -0.67899,1.273421 -0.67899,1.273421 0,0 -0.97073,-0.826307 -0.74263,-0.860261 0.22544,-0.03679 -0.3554,-1.760151 -0.3554,-1.760151 l -0.25993,-1.134761 -0.3554,-0.863098 -0.61267,-1.412078 -0.42171,-1.414912 0.68428,-0.984774 -1.2333,-1.03006 2.19607,-1.779958 -1.51709,-0.104704 1.99715,-1.443207 -1.01846,-0.650859 3.03949,-2.275178 -0.97338,0.03679 2.58596,-1.290399 -1.13782,-0.118851 2.63105,-1.74317 -1.86455,-0.679157 -1.48792,1.40076 -0.71876,-0.314111 -0.73733,0.65935 -0.81425,-0.189598 -0.25196,1.015908 -0.94952,0.31977 -0.43497,1.335675 -0.94155,-0.82631 -0.85138,0.761225 c 0,0 -0.27849,1.513953 -0.31032,1.754489 -0.0318,0.240533 -1.66032,0.407493 -1.66032,0.407493 l -1.10864,1.284739 -0.23075,0.393343 -1.31022,0.670669 1.01316,-1.185696 0.12997,-0.885732 -0.19362,-1.134759 -0.15383,-1.151739 0.78772,-1.061183 0.0265,-1.180036 0.85669,-0.322599 0.1777,-1.185695 1.29696,-0.447109 0.4164,-1.052695 0.88851,-0.06792 0.41641,-1.018733 1.32613,-0.503711 0.36867,-1.013074 1.16699,0.285811 1.24127,-1.30172 3.40551,0.577288 c 0.45088,0 1.34204,-0.410327 1.34204,-0.410327 l -0.36336,-0.792352 -0.60471,-0.189598 -0.67898,-0.415984 -0.6392,-0.110359 -0.88851,-0.515029 -1.19617,-0.534836 -1.38979,-0.328262 c 0,0 -0.0663,-0.396173 -0.33949,-0.413153 -0.27319,-0.01696 -1.03439,-0.03396 -1.03439,-0.03396 l -1.09803,-0.08773 c 0,0 -0.22545,-0.396173 -0.33949,-0.44711 -0.1114,-0.05094 -0.54902,0.03396 -0.66042,0.05094 -0.11405,0.01696 -0.63124,0.01696 -0.63124,0.01696 0,0 0.12996,-0.619731 0,-0.534836 -0.12996,0.08773 -0.59676,0.243363 -0.59676,0.243363 l -0.25992,-0.05377 -0.56493,-0.379195 -0.37132,0.209406 -0.6445,-0.13866 -0.32358,-0.104703 -1.15639,0.02828 0.66572,-0.517857 z"
     id="path232" />
  <g
     style="clip-rule:evenodd;fill-rule:evenodd;image-rendering:optimizeQuality;shape-rendering:geometricPrecision;text-rendering:geometricPrecision"
     transform="matrix(0.28093083,0,0,0.28298219,-378.99064,-154.22744)"
     id="g236">
    <text
       style="font-weight:bold;font-size:77.94999695px;font-family:Arial;fill:#201e1e"
       x="540"
       y="540"
       class="fil6 fnt0"
       id="text234">Pedra</text>
  </g>
  <g
     style="clip-rule:evenodd;fill-rule:evenodd;image-rendering:optimizeQuality;shape-rendering:geometricPrecision;text-rendering:geometricPrecision"
     transform="matrix(0.25623955,0,0,0.28298219,-446.98391,-153.57261)"
     id="g240">
    <text
       style="font-weight:bold;font-size:77.94999695px;font-family:Arial;fill:#201e1e"
       x="540"
       y="540"
       class="fil6 fnt0"
       id="text238">Casa</text>
  </g>
  <g
     style="clip-rule:evenodd;fill-rule:evenodd;image-rendering:optimizeQuality;shape-rendering:geometricPrecision;text-rendering:geometricPrecision"
     transform="matrix(0.25623955,0,0,0.28298219,-395.55299,-153.57205)"
     id="g244">
    <text
       style="font-weight:bold;font-size:77.94999695px;font-family:Arial;fill:#201e1e"
       x="540"
       y="540"
       class="fil6 fnt0"
       id="text242">de</text>
  </g>
  <g
     style="clip-rule:evenodd;fill-rule:evenodd;image-rendering:optimizeQuality;shape-rendering:geometricPrecision;text-rendering:geometricPrecision"
     transform="matrix(0.21518616,0,0,0.28298219,-440.45323,-171.28502)"
     id="g248">
    <text
       style="font-weight:bold;font-size:54.91999817px;font-family:Arial;fill:#201e1e"
       x="540"
       y="540"
       class="fil6 fnt1"
       id="text246">Pousada</text>
  </g>
  <g
     style="clip-rule:evenodd;fill-rule:evenodd;image-rendering:optimizeQuality;shape-rendering:geometricPrecision;text-rendering:geometricPrecision"
     transform="matrix(0.26691889,0,0,0.28298219,-473.4599,-132.00795)"
     id="g252">
    <text
       style="font-weight:normal;font-size:33.38999939px;font-family:Arial;fill:#201e1e"
       x="540"
       y="540"
       class="fil6 fnt2"
       id="text250">(12)</text>
  </g>
  <g
     style="clip-rule:evenodd;fill-rule:evenodd;image-rendering:optimizeQuality;shape-rendering:geometricPrecision;text-rendering:geometricPrecision"
     transform="matrix(0.27122617,0,0,0.28298219,-458.79684,-130.77245)"
     id="g256">
    <text
       style="font-weight:normal;font-size:51.24000168px;font-family:Arial;fill:#201e1e"
       x="540"
       y="540"
       class="fil6 fnt3"
       id="text254">3895-8283</text>
  </g>
  <g
     style="clip-rule:evenodd;fill-rule:evenodd;image-rendering:optimizeQuality;shape-rendering:geometricPrecision;text-rendering:geometricPrecision"
     transform="matrix(0.27122617,0,0,0.28298219,-390.19329,-130.12329)"
     id="g260">
    <text
       style="font-weight:normal;font-size:51.24000168px;font-family:Arial;fill:#373435"
       x="540"
       y="540"
       class="fil7 fnt3"
       id="text258">/</text>
  </g>
  <g
     style="clip-rule:evenodd;fill-rule:evenodd;image-rendering:optimizeQuality;shape-rendering:geometricPrecision;text-rendering:geometricPrecision"
     transform="matrix(0.27122617,0,0,0.28298219,-371.27435,-130.49824)"
     id="g264">
    <text
       style="font-weight:normal;font-size:51.24000168px;font-family:Arial;fill:#201e1e"
       x="540"
       y="540"
       class="fil6 fnt3"
       id="text262">99778-3131</text>
  </g>
  <g
     style="clip-rule:evenodd;fill-rule:evenodd;image-rendering:optimizeQuality;shape-rendering:geometricPrecision;text-rendering:geometricPrecision"
     transform="matrix(0.25440046,0,0,0.28298219,-330.6719,-145.58799)"
     id="g268">
    <text
       style="font-weight:bold;font-size:32.68999863px;font-family:Arial;fill:#201e1e"
       x="540"
       y="540"
       class="fil6 fnt4"
       id="text266">Ilhabela</text>
  </g>
  <g
     style="clip-rule:evenodd;fill-rule:evenodd;image-rendering:optimizeQuality;shape-rendering:geometricPrecision;text-rendering:geometricPrecision"
     id="g276"
     transform="matrix(0.26522675,0,0,0.28298219,-347.38569,-64.744778)">
    <g
       id="g274">
      <path
         style="fill:#201e1e"
         inkscape:connector-curvature="0"
         class="fil6"
         d="m 411.53,310.96 c 0.62,-1.86 1.21,-3.61 1.79,-5.36 0.59,-1.73 1.11,-3.48 1.78,-5.19 0.34,-0.86 0.23,-1.51 -0.2,-2.32 -2.36,-4.38 -3.06,-9.08 -2.24,-13.96 0.69,-4.14 2.45,-7.8 5.29,-10.9 4.67,-5.11 10.51,-7.56 17.41,-7.28 5.06,0.21 9.53,2.06 13.34,5.4 3.55,3.11 5.87,6.98 6.94,11.57 0.86,3.71 0.77,7.39 -0.3,11.04 -1.35,4.62 -3.94,8.43 -7.78,11.34 -5.35,4.03 -11.34,5.29 -17.87,4.02 -1.97,-0.38 -3.84,-1.09 -5.61,-2.04 -0.29,-0.15 -0.53,-0.19 -0.84,-0.08 -3.36,1.08 -6.72,2.15 -10.07,3.22 -0.5,0.17 -1.02,0.34 -1.64,0.54 z m 5.71,-5.65 c 0.17,-0.04 0.26,-0.06 0.34,-0.09 2.1,-0.66 4.2,-1.34 6.3,-1.99 0.2,-0.06 0.47,-0.01 0.66,0.08 0.91,0.45 1.79,1 2.72,1.39 3.86,1.63 7.83,1.89 11.85,0.78 4.8,-1.35 8.47,-4.2 10.99,-8.52 2.15,-3.69 2.89,-7.69 2.22,-11.88 -0.84,-5.35 -3.58,-9.55 -8.12,-12.53 -3.92,-2.58 -8.25,-3.45 -12.86,-2.72 -3.98,0.63 -7.37,2.44 -10.18,5.34 -2.4,2.49 -4.02,5.43 -4.72,8.81 -1,4.83 -0.26,9.41 2.42,13.58 0.55,0.84 0.53,1.48 0.2,2.34 -0.65,1.76 -1.2,3.55 -1.82,5.41 z"
         id="path270" />
      <path
         style="fill:#201e1e"
         inkscape:connector-curvature="0"
         class="fil6"
         d="m 445.64,294.19 c -0.03,1.74 -0.85,3.07 -2.51,3.9 -1.63,0.81 -3.29,1.02 -4.99,0.35 -1.53,-0.6 -3.08,-1.19 -4.56,-1.92 -1.95,-0.96 -3.54,-2.41 -5,-4 -1.61,-1.77 -2.98,-3.73 -4.11,-5.83 -0.8,-1.49 -1.29,-3.07 -1.12,-4.8 0.18,-1.83 1.04,-3.3 2.48,-4.41 0.29,-0.22 0.72,-0.32 1.09,-0.35 0.48,-0.04 0.96,0.03 1.43,0.07 0.4,0.04 0.62,0.32 0.75,0.64 0.35,0.86 0.67,1.73 1,2.6 0.23,0.59 0.4,1.2 0.67,1.77 0.33,0.7 0.13,1.29 -0.31,1.83 -0.37,0.46 -0.75,0.9 -1.18,1.3 -0.35,0.33 -0.41,0.67 -0.18,1.08 1.04,1.85 2.3,3.5 3.97,4.85 1.1,0.88 2.31,1.54 3.57,2.15 0.37,0.18 0.73,0.15 1.02,-0.18 0.62,-0.71 1.26,-1.42 1.87,-2.14 0.39,-0.46 0.59,-0.55 1.12,-0.28 1.55,0.78 3.07,1.58 4.6,2.38 0.36,0.2 0.45,0.53 0.39,0.99 z"
         id="path272" />
    </g>
  </g>
  <g
     style="clip-rule:evenodd;fill-rule:evenodd;image-rendering:optimizeQuality;shape-rendering:geometricPrecision;text-rendering:geometricPrecision"
     id="g314"
     transform="matrix(0.26522675,0,0,0.28298219,-347.38569,-64.744778)">
    <g
       id="g282">
      <g
         id="g280">
        <path
           style="fill:#201e1e"
           inkscape:connector-curvature="0"
           class="fil6"
           d="m 39.43,266.06 c 10.93,0 19.82,8.89 19.82,19.82 0,10.93 -8.89,19.82 -19.82,19.82 -10.93,0 -19.82,-8.89 -19.82,-19.82 0,-10.93 8.89,-19.82 19.82,-19.82 z m 0,-2.83 c -12.51,0 -22.66,10.14 -22.66,22.65 0,12.51 10.15,22.66 22.66,22.66 12.51,0 22.65,-10.15 22.65,-22.66 0,-12.51 -10.14,-22.65 -22.65,-22.65 z m 12.63,30.23 -0.13,-0.39 c -0.3,-0.89 -1.28,-1.82 -2.19,-2.07 l -3.35,-0.92 c -0.91,-0.24 -2.2,0.09 -2.87,0.76 l -1.21,1.21 c -4.4,-1.19 -7.85,-4.65 -9.04,-9.05 l 1.21,-1.21 c 0.66,-0.67 0.99,-1.96 0.75,-2.87 l -0.92,-3.35 c -0.24,-0.91 -1.18,-1.89 -2.07,-2.19 l -0.38,-0.13 c -0.89,-0.29 -2.17,0.01 -2.83,0.67 l -1.82,1.82 c -0.32,0.32 -0.53,1.24 -0.53,1.24 -0.06,5.76 2.2,11.3 6.27,15.38 4.06,4.06 9.59,6.31 15.32,6.26 0.03,0 0.98,-0.2 1.31,-0.52 l 1.81,-1.82 c 0.66,-0.66 0.96,-1.93 0.67,-2.82 z"
           id="path278" />
      </g>
    </g>
    <g
       id="g284" />
    <g
       id="g286" />
    <g
       id="g288" />
    <g
       id="g290" />
    <g
       id="g292" />
    <g
       id="g294" />
    <g
       id="g296" />
    <g
       id="g298" />
    <g
       id="g300" />
    <g
       id="g302" />
    <g
       id="g304" />
    <g
       id="g306" />
    <g
       id="g308" />
    <g
       id="g310" />
    <g
       id="g312" />
  </g>
  <text
     transform="scale(0.98787257,1.0122763)"
     id="text394"
     class="fil8 str1 fnt5"
     y="88.894592"
     x="-305.30988"
     style="font-weight:900;font-size:16.52313614px;font-family:'Arial Black';clip-rule:evenodd;fill:#201e1e;fill-rule:evenodd;stroke:#282829;stroke-width:0.22305118;stroke-miterlimit:22.92560005;image-rendering:optimizeQuality;shape-rendering:geometricPrecision;text-rendering:geometricPrecision">Valores Promocionais</text>
  <text
     transform="scale(0.98792118,1.0122265)"
     id="text394-3"
     class="fil8 str1 fnt5"
     y="162.08809"
     x="-272.69162"
     style="font-weight:900;font-size:16.5239315px;font-family:'Arial Black';clip-rule:evenodd;fill:#201e1e;fill-rule:evenodd;stroke:#282829;stroke-width:0.22306192;stroke-miterlimit:22.92560005;image-rendering:optimizeQuality;shape-rendering:geometricPrecision;text-rendering:geometricPrecision">
    <tspan
       style="font-size:11.28943348px;stroke-width:0.22306192"
       id="tspan4017">Opções de Pagemeto</tspan>
  </text>
  <polygon
     transform="matrix(0.24588411,0,0,0.25087713,-337.05028,-49.09233)"
     id="polygon438"
     points="1077.38,1068.41 1077.38,1069.92 2.62,1069.92 2.62,1068.41 "
     class="fil8"
     style="clip-rule:evenodd;display:inline;fill:#201e1e;fill-rule:evenodd;image-rendering:optimizeQuality;shape-rendering:geometricPrecision;text-rendering:geometricPrecision" />
  <text
     xml:space="preserve"
     style="font-style:normal;font-weight:normal;font-size:10.58333302px;line-height:1.25;font-family:sans-serif;letter-spacing:0px;word-spacing:0px;fill:#000000;fill-opacity:1;stroke:none;stroke-width:0.26458332"
     x="-339.64664"
     y="218.51059"
     id="text451"><tspan
       sodipodi:role="line"
       id="tspan449"
       x="-339.64664"
       y="218.51059"
       style="font-style:normal;font-variant:normal;font-weight:bold;font-stretch:normal;font-size:8.46666622px;font-family:'Arial Black';-inkscape-font-specification:'Arial Black,  Bold';stroke-width:0.26458332">(Deposito integral na reserva Bancos = Itau ou Santander)</tspan><tspan
       sodipodi:role="line"
       x="-339.64664"
       y="231.73976"
       style="font-style:normal;font-variant:normal;font-weight:bold;font-stretch:normal;font-size:8.46666622px;font-family:Arial;-inkscape-font-specification:'Arial Bold';stroke-width:0.26458332"
       id="tspan453" /></text>
</svg>
